<svg xmlns="http://www.w3.org/2000/svg" viewBox="0 0 1054.51 479" height="85"><rect width="984.22" height="479" fill="#28283c" rx="22.84"></rect><path fill="#fff" d="M917.35 85.16h-48.59v18h48.59a8.39 8.39 0 0 1 8.38 8.39v300.23a8.39 8.39 0 0 1-8.38 8.38h-391.1v18h391.1a26.4 26.4 0 0 0 26.38-26.38V111.55a26.41 26.41 0 0 0-26.38-26.39M266.72 98.88h10.12l-5.06-12.36zM365.11 83.8c-6.75 0-11.43 5.33-11.43 11.86v.11c0 6.53 4.79 12 11.54 12s11.43-5.34 11.43-11.87v-.11c0-6.55-4.79-11.99-11.54-11.99M447.62 98.88h10.12l-5.06-12.36zM174.25 99.09h-9.69v8.39h10c3.7 0 5.93-1.31 5.93-4.14v-.11c-.09-2.56-1.99-4.14-6.24-4.14M543.72 84.29h-6.47v11.65h6.64c4.19 0 6.64-2.51 6.64-5.77v-.11c0-3.76-2.61-5.77-6.81-5.77M581.93 84.29h-8.33v10.94h8.49c4.08 0 6.43-2.18 6.43-5.39v-.11c0-3.59-2.51-5.44-6.59-5.44M178.25 88.1V88c0-2.5-2-3.92-5.5-3.92h-8.27v8.06h7.77c3.69-.01 6-1.21 6-4.04M138.98 88.1V88c0-2.5-1.95-3.92-5.49-3.92h-8.24v8.06h7.73c3.66-.01 6-1.21 6-4.04M99.69 88.1V88c0-2.5-2-3.92-5.5-3.92h-8.27v8.06h7.73c3.7-.01 6.04-1.21 6.04-4.04M134.9 99.09h-9.65v8.39h10c3.71 0 5.94-1.31 5.94-4.14v-.11c-.08-2.56-1.94-4.14-6.29-4.14M95.61 99.09h-9.69v8.39h10c3.7 0 5.94-1.31 5.94-4.14v-.11c-.04-2.56-1.95-4.14-6.25-4.14"></path><path fill="#fff" d="M876.02 39.06H50.5a9.52 9.52 0 0 0-9.49 9.49v92.68a9.52 9.52 0 0 0 9.49 9.49h825.52a9.52 9.52 0 0 0 9.49-9.49V48.55a9.52 9.52 0 0 0-9.49-9.49m-765.88 65.31c0 7-5.66 10.45-14.26 10.45H77.76v-38.1h17.69c4.35 0 7.78 1.2 10 3.38a8.73 8.73 0 0 1 2.61 6.47v.11a8.86 8.86 0 0 1-5 8.22c4.41 1.69 7.13 4.25 7.13 9.36Zm39.3 0c0 7-5.66 10.45-14.27 10.45h-18.12v-38.1h17.69c4.35 0 7.78 1.2 10 3.38a8.73 8.73 0 0 1 2.61 6.47v.11a8.86 8.86 0 0 1-5 8.22c4.4 1.69 7.13 4.25 7.13 9.36Zm39.29 0c0 7-5.66 10.45-14.26 10.45h-18.13v-38.1h17.69c4.36 0 7.79 1.2 10 3.38a8.74 8.74 0 0 1 2.62 6.47v.11a8.86 8.86 0 0 1-5 8.22c4.41 1.69 7.13 4.25 7.13 9.36Zm57.09 10.45h-7.13L220.25 90.6v24.22h-8.28v-38.1h7.73l17.85 23.46V76.72h8.28Zm37.49 0-3.48-8.54h-16.11l-3.47 8.54h-8.55l16.33-38.37h7.73l16.33 38.37Zm38.59-30.37h-11.59v30.37h-8.39V84.45h-11.59v-7.73h31.57Zm15.18 30.37h-8.38v-38.1h8.38Zm48.33-19c0 10.83-8.54 19.71-20.3 19.71s-20.19-8.77-20.19-19.6v-.11c0-10.83 8.54-19.7 20.3-19.7s20.19 8.76 20.19 19.59Zm41.31 19h-7.13L401.14 90.6v24.22h-8.28v-38.1h7.73l17.86 23.46V76.72h8.27Zm37.5 0-3.49-8.54h-16.11l-3.48 8.54h-8.55l16.33-38.37h7.73l16.33 38.37Zm42 0h-27.37v-38.1h8.4v30.48h19ZM559.02 90c0 8.82-6.86 13.39-15.4 13.39h-6.37v11.43h-8.38v-38.1h15.56c9.09 0 14.59 5.39 14.59 13.17Zm29.33 24.82-8.16-12.19h-6.59v12.19h-8.35v-38.1h17.42c4.84 0 8.6 1.36 11.1 3.87a12 12 0 0 1 3.27 8.71v.1a11.84 11.84 0 0 1-8.17 11.82l9.31 13.6Zm55-19c0 10.83-8.55 19.71-20.31 19.71s-20.19-8.77-20.19-19.6v-.11c0-10.83 8.55-19.7 20.3-19.7s20.2 8.76 20.2 19.59Zm42.06 13.67a24.74 24.74 0 0 1-16.27 6c-11.87 0-20-8.33-20-19.6v-.11a19.56 19.56 0 0 1 20-19.7c6.85 0 11 1.85 15 5.22l-5.28 6.37c-2.93-2.45-5.55-3.86-10-3.86-6.09 0-10.94 5.39-10.94 11.86v.11c0 7 4.79 12.09 11.54 12.09a13.4 13.4 0 0 0 7.89-2.29v-5.44h-8.43v-7.25h16.54Zm31.19 5.38-8.17-12.19h-6.58v12.19h-8.38V76.72h17.41c4.85 0 8.6 1.36 11.11 3.87a12 12 0 0 1 3.26 8.71v.1a11.84 11.84 0 0 1-8.16 11.82l9.3 13.6Zm44.57 0-3.48-8.54h-16.08l-3.49 8.54h-8.54l16.33-38.37h7.72l16.33 38.37Zm52.74 0h-8.33V90l-10.72 16.27h-.22l-10.58-16.16v24.71h-8.22v-38.1h9l10 16.11 10-16.11h9Zm36.68-11.26c0 7.56-5.77 11.81-14 11.81a24.3 24.3 0 0 1-16.17-6.1l5-5.93c3.43 2.83 7 4.62 11.37 4.62 3.43 0 5.5-1.36 5.5-3.59v-.11c0-2.12-1.31-3.21-7.68-4.84-7.67-2-12.62-4.08-12.62-11.65v-.11c0-6.91 5.55-11.48 13.33-11.48A22.06 22.06 0 0 1 849.47 81l-4.35 6.32c-3.37-2.34-6.7-3.76-9.91-3.76s-4.9 1.47-4.9 3.32V87c0 2.5 1.64 3.32 8.22 5 7.73 2 12.09 4.79 12.09 11.43Z"></path><path fill="#fff" d="M744.6 98.88h10.13l-5.07-12.36zM710.25 84.29h-8.33v10.94h8.49c4.08 0 6.42-2.18 6.42-5.39v-.11c-.04-3.59-2.58-5.44-6.58-5.44M623.07 83.8c-6.75 0-11.43 5.33-11.43 11.86v.11c0 6.53 4.79 12 11.54 12s11.43-5.34 11.43-11.87v-.11c0-6.55-4.79-11.99-11.54-11.99M528.63 212.59v-.16c0-16 12-29.07 29.31-29.07 10.6 0 16.94 3.53 22.16 8.67l-7.85 9.08c-4.33-3.94-8.75-6.35-14.37-6.35-9.48 0-16.31 7.87-16.31 17.51v.16c0 9.64 6.67 17.67 16.31 17.67 6.42 0 10.36-2.57 14.77-6.59l7.87 8c-5.78 6.19-12.2 10-23 10-16.61-.01-28.89-12.78-28.89-28.92M586.25 212.59v-.16c0-16 12.61-29.07 30-29.07s29.79 12.93 29.79 28.91v.16c0 16-12.61 29.07-29.95 29.07s-29.84-12.93-29.84-28.91m46.82 0v-.16c0-9.64-7.07-17.67-17-17.67s-16.82 7.87-16.82 17.51v.16c0 9.64 7.07 17.67 17 17.67s16.85-7.87 16.85-17.51ZM657.03 184.32h23c13.41 0 21.52 8 21.52 19.44v.16c0 13-10.12 19.75-22.73 19.75h-9.39v16.87h-12.4Zm22.16 28.35c6.19 0 9.8-3.69 9.8-8.51V204c0-5.54-3.85-8.51-10-8.51h-9.55v17.18ZM710.67 184.32h23c13.41 0 21.52 8 21.52 19.44v.16c0 13-10.12 19.75-22.73 19.75h-9.39v16.87h-12.4Zm22.16 28.35c6.19 0 9.8-3.69 9.8-8.51V204c0-5.54-3.85-8.51-10-8.51h-9.55v17.18ZM777.97 183.92h11.4l24.09 56.62h-12.93l-5.14-12.61h-23.77l-5.14 12.61h-12.61Zm13 33.09-7.47-18.23-7.46 18.22ZM527.25 308.29l7.31-8.76c5.06 4.18 10.36 6.83 16.78 6.83 5.06 0 8.11-2 8.11-5.3v-.16c0-3.13-1.92-4.74-11.32-7.15-11.32-2.89-18.63-6-18.63-17.18v-.17c0-10.19 8.19-16.94 19.67-16.94a32.53 32.53 0 0 1 20.88 7.15l-6.42 9.31c-5-3.45-9.88-5.54-14.62-5.54s-7.22 2.17-7.22 4.9v.16c0 3.69 2.41 4.9 12.12 7.39 11.41 3 17.83 7.07 17.83 16.86v.16c0 11.17-8.51 17.43-20.64 17.43a35.8 35.8 0 0 1-23.85-8.99M600.58 259.86h11.4l24.09 56.62h-12.93L618 303.87h-23.75l-5.14 12.61h-12.6Zm13 33.09-7.47-18.23-7.46 18.28ZM644.74 260.26h42.81v11.25h-30.44v12h26.82v11.24h-26.82v21.77h-12.37ZM697.42 260.26h42.4v11h-30.11v11.41h26.54v11h-26.5v11.81h30.5v11h-42.8ZM531.12 336.2h12.36v22.25h22.77V336.2h12.37v56.22h-12.37v-22.57h-22.77v22.57h-12.36ZM611.42 335.8h11.4l24.09 56.62h-12.93l-5.14-12.61h-23.77l-5.14 12.61h-12.6Zm13 33.08-7.47-18.22-7.47 18.22ZM655.58 336.2h25.67c7.15 0 12.69 2 16.38 5.7 3.14 3.13 4.82 7.55 4.82 12.85v.16c0 9.08-4.9 14.78-12 17.43l13.73 20.08h-14.47l-12-18h-9.76v18h-12.37Zm24.9 27.3c6 0 9.47-3.21 9.47-7.95v-.16c0-5.3-3.69-8-9.71-8h-12.29v16.11ZM713.64 336.2h26.1c6.43 0 11.48 1.77 14.7 5a12.9 12.9 0 0 1 3.85 9.56v.16c0 6.34-3.37 9.87-7.39 12.12 6.51 2.49 10.52 6.27 10.52 13.82v.14c0 10.28-8.35 15.42-21 15.42h-26.78ZM746 352.82c0-3.69-2.89-5.78-8.11-5.78h-12.2v11.89h11.4c5.46 0 8.91-1.77 8.91-5.95Zm-6 16.39h-14.31v12.36h14.69c5.46 0 8.76-1.92 8.76-6.1v-.16c0-3.77-2.81-6.1-9.16-6.1ZM769.13 364.47v-.16c0-16 12.61-29.07 30-29.07s29.8 12.93 29.8 28.91v.16c0 16-12.61 29.07-30 29.07s-29.8-12.93-29.8-28.91m46.82 0v-.16c0-9.64-7.07-17.67-17-17.67s-16.86 7.87-16.86 17.51v.16c0 9.63 7.07 17.67 17 17.67s16.86-7.87 16.86-17.51M839.87 336.2h25.7c7.15 0 12.69 2 16.38 5.7 3.14 3.13 4.82 7.55 4.82 12.85v.16c0 9.08-4.9 14.78-12 17.43l13.73 20.08H874l-12-18h-9.75v18h-12.38Zm24.9 27.3c6 0 9.48-3.21 9.48-7.95v-.16c0-5.3-3.7-8-9.72-8h-12.28v16.11ZM439.91 350.6h-1.61v2.13h1.61c.84 0 1.31-.43 1.31-1.06s-.51-1.07-1.31-1.07M206.85 285.27c-2.9-.49-4 2.45-5.12 4.67-3.48 7.2-6.86 14.44-10.22 21.69a16 16 0 0 0-1.38 4.11c-.55 3.31.88 4.81 4.17 4.27a78 78 0 0 0 7.84-1.87c8.94-2.43 9.5-3.22 9.51-12.49-.53-4.76-1-9.51-1.6-14.26-.29-2.46-.27-5.62-3.2-6.12M309.71 279c2.65-3.76.76-7.57-3.76-8.26a30 30 0 0 0-4.34 0v-.26c-1.95.18-4 0-5.83.63-6.7 2.36-13.43 4.71-19.91 7.61-8.66 3.86-9.75 6.15-8.9 15.48.13 1.45.25 2.9.51 4.33.94 5.26 2.82 6.35 7.74 4.44a99.4 99.4 0 0 0 26.82-15.45 42.3 42.3 0 0 0 7.67-8.52"></path><path fill="#fff" d="M484.83 178.57H51.11a10.66 10.66 0 0 0-10.63 10.63v238.34a10.65 10.65 0 0 0 10.63 10.62h433.72a10.66 10.66 0 0 0 10.63-10.62V189.2a10.66 10.66 0 0 0-10.63-10.63m-84.08 109.18a16 16 0 0 1 .5-2.75c1.22-4.57 4.18-5.89 8.47-3.89 8.29 3.87 10 14.29 3.33 20.74-2.9 2.82-6.91 2.69-9-.9a24.1 24.1 0 0 1-3.41-8.94 15.4 15.4 0 0 1 .11-4.26m-26-11.53c4.28-2 7.25-.68 8.47 3.89a16 16 0 0 1 .49 2.76 15.8 15.8 0 0 1 .08 4.25 24.4 24.4 0 0 1-3.41 8.95c-2.06 3.58-6.06 3.71-9 .89-6.6-6.45-4.93-16.87 3.36-20.74Zm-222.34 75.62c-1.38 9.23-8.23 14.7-17.33 13.12a150 150 0 0 1-20.11-5c-15.44-5-24.29-16-28.14-31.64-4-16.1-1.54-37 11-52.62a43.9 43.9 0 0 1 9.17-9.85c9.47-7.53 20-12.22 32.33-10.51a148 148 0 0 1 18.44 3.69c2.27.61 4.33 2.62 6.07 4.4a6.48 6.48 0 0 1 1.14 8.11c-1.63 2.91-4.51 3.61-7.57 3.25-4-.45-7.87-1.09-11.79-1.74-5.59-.93-11.18-2-16.68.38a45.6 45.6 0 0 0-11.8 7.17c-9.12 9.13-11.47 22.43-10.77 34.41a46 46 0 0 0 2.77 12.4c4.29 12.08 14.39 18.94 27.18 19.19 2.94-.5 5.9-.92 8.83-1.52 5.36-1.08 8.1 1.38 7.26 6.76m90.64-25.46c-5.12 5.55-5.49 11.93-4.85 18.91.55 5.94-.57 11.57-5 16.12-3.79 3.87-9.39 3-11.35-2.17-1-2.59-1.2-5.46-1.81-8.19-1-4.25-1.75-8.55-3-12.72s-3-5.25-7.17-4.79c-5.13.57-10.23 1.51-15.34 2.27a29 29 0 0 1-3.08.33c-6.57.28-8 1.33-10.24 7.41-1.67 4.47-3.36 8.95-5.28 13.31-1.86 4.2-4.59 7.71-9.28 9-5.86 1.61-11.64-2.39-11.45-8.76a34 34 0 0 1 1.14-4.25q12.3-32.79 24.66-65.56 3.12-8.31 6-16.7c3.12-9 8.66-14.81 18.75-15.62 3.16-.25 6.28-2 9.23-3.44 3.82-1.87 7.18-1.47 9.16 2.32a28.4 28.4 0 0 1 3.1 9.68c1.5 13 2.75 26.06 3.84 39.11.6 7.23 2.68 13.1 10.06 16.05 3.46 1.37 4.42 4.96 1.91 7.69m90.13 32.73c-4.36 7.83-16.19 9.56-22.34 2.21-10.66-12.73-22.17-24.75-33.48-36.93-1.56-1.68-4.26-3.83-6-3.47-2.91.6-2.47 4.12-2.46 6.67 0 4.05.15 8.11.44 12.16A13.61 13.61 0 0 1 262.8 353c-5 3.24-10.61 1.09-11.77-4.72a68 68 0 0 1-1-12.1c-.15-8.53-.05-17.06-.05-25.59-.32 0 .11-9-.21-9-.39-10.5-1.65-12-1.88-22.51-.17-7.83 1.91-10.15 9.5-12.28 12.54-3.51 25-7.42 37.58-10.71 7-1.82 14.08-3.58 21.45-2.39 9.74 1.57 15.28 9.36 13.66 19.12-1.09 6.52-3.86 12-9.14 16.11-6.53 5.12-12.93 10.42-19.38 15.64-5.62 4.55-5.86 6-1.28 11.61 6.46 7.87 12.87 15.79 19.68 23.34a29.8 29.8 0 0 0 9 6.36c5.8 2.84 7.38 7.53 4.22 13.23m23.07-1.35c-12.05-9.13-18.62-19.74-19.95-31.6-.71-6.33-.95-12.67-1.53-20.89 1.33-11.12 2.68-24.09 4.53-37 .79-5.53 3.23-8.47 11.24-10.6 4.47-1.18 7.09.1 7.09.1 5.11 2.82 7 6.66 5.83 10.73-4.27 14.92-5 30-5.19 45.07-.12 10.56 3.67 20.41 14.42 28.83a31 31 0 0 0 2.55 1.89c5.18 3.31 18.75 3.41 22.93.9 10-4.5 14.84-15.47 17.63-22.15 6.65-15.91 6.33-32.34 7.05-48.65.11-2.6.07-5.2.05-7.81-.05-7.26-.94-11.51 8.71-14.79 5.89-2 11.83-.43 13.67 3.6a10.06 10.06 0 0 1 .71 5.53c-2 14-4.35 27.92-6.15 41.9-2.42 18.81-12 36.22-26.58 52.4-12.48 13.78-40.85 14.78-57.01 2.54m90.6-4.76a7.37 7.37 0 1 1-14.74 0 7.37 7.37 0 1 1 14.74 0"></path><path fill="#fff" d="M439.48 346.34a6.57 6.57 0 0 0-6.52 6.64 6.49 6.49 0 0 0 6.52 6.59 6.56 6.56 0 0 0 6.53-6.64 6.5 6.5 0 0 0-6.53-6.59m1.66 10.35-1.66-2.43h-1.18v2.43h-1.87V349h3.6c1.78 0 3.1.81 3.1 2.56a2.37 2.37 0 0 1-1.7 2.38l1.95 2.77Z"></path><path fill="#28283c" d="M1004.54 453.47h-9v-6h24.45v6h-9V477h-6.49ZM1024.99 447.49h7l7.76 12.51 7.75-12.48h7V477h-6.45v-19.27l-8.3 12.61h-.17l-8.22-12.48V477h-6.37Z"></path></svg>